<svg width="60" height="60" viewBox="0 0 60 60" fill="none" xmlns="http://www.w3.org/2000/svg">
<path d="M10 2H50C54.4183 2 58 5.58172 58 10V50C58 54.4183 54.4183 58 50 58H10C5.58172 58 2 54.4183 2 50V10C2 5.58172 5.58172 2 10 2Z" stroke="white" stroke-width="4"/>
<path d="M17.7695 41L17.9629 39.5938L14.6934 38.8203L16.4688 33.4062H23.834L25.75 38.7324L22.7441 39.6992L22.5332 41H31.5859L31.7441 39.5938L29.3359 38.8203L22.4805 18.7109L19.8262 19.2559L12.3203 38.7324L9.70117 39.6992L9.54297 41H17.7695ZM20.4062 22.8242L23.3242 31.6133H17.1367L20.4062 22.8242ZM39.5312 41.4219C40.8789 41.4219 42.1504 41.1465 43.3457 40.5957C44.5527 40.0332 45.5195 39.2422 46.2461 38.2227C46.9844 37.2031 47.3535 36.0371 47.3535 34.7246C47.3535 33.7871 47.1133 32.9727 46.6328 32.2812C46.1523 31.5898 45.5664 31.0098 44.875 30.541C44.1836 30.0605 43.252 29.5098 42.0801 28.8887C40.9551 28.2793 40.0645 27.7578 39.4082 27.3242C38.7637 26.8906 38.2129 26.3574 37.7559 25.7246C37.3105 25.0918 37.0879 24.3535 37.0879 23.5098C37.0879 22.4082 37.3867 21.5762 37.9844 21.0137C38.582 20.4512 39.3496 20.1699 40.2871 20.1699C40.7207 20.1699 41.1484 20.2637 41.5703 20.4512C41.9922 20.627 42.3496 20.8496 42.6426 21.1191C42.9473 21.377 43.1582 21.6172 43.2754 21.8398L43.7148 25.1973L45.4551 25.4082C45.4902 24.9043 45.5547 24.0898 45.6484 22.9648C45.7422 21.8398 45.8066 21.002 45.8418 20.4512C44.4355 19.2793 42.7832 18.6934 40.8848 18.6934C39.7012 18.6934 38.5879 18.9395 37.5449 19.4316C36.502 19.9238 35.6582 20.6387 35.0137 21.5762C34.3691 22.5137 34.0469 23.6211 34.0469 24.8984C34.0469 26 34.3105 26.9551 34.8379 27.7637C35.377 28.5723 36.0215 29.2402 36.7715 29.7676C37.5332 30.2832 38.5293 30.8691 39.7598 31.5254C40.7559 32.0645 41.5352 32.5215 42.0977 32.8965C42.6719 33.2715 43.1523 33.7168 43.5391 34.2324C43.9258 34.7363 44.1191 35.3105 44.1191 35.9551C44.1191 36.7754 43.9082 37.4609 43.4863 38.0117C43.0762 38.5625 42.5488 38.9727 41.9043 39.2422C41.2715 39.5117 40.6211 39.6465 39.9531 39.6465C39.1797 39.6465 38.4648 39.4766 37.8086 39.1367C37.1641 38.7969 36.6719 38.3809 36.332 37.8887L35.6465 34.584L33.8535 34.3379L33.625 39.3828C34.2227 39.9688 35.0488 40.4551 36.1035 40.8418C37.1699 41.2285 38.3125 41.4219 39.5312 41.4219Z" fill="white"/>
</svg>
